<svg width="1116" height="520" viewBox="0 0 1116 520" fill="none" xmlns="http://www.w3.org/2000/svg">
<path d="M720.5 423.17V365H683.1V423.17H596L612.63 461H683.1V519.15H720.5V461H842.95V423.17H720.5Z" fill="white"/>
<path d="M842.58 461H720.13V519.15H802.63H842.61V461H842.58Z" fill="#00AEEF"/>
<path d="M802.63 365H720.13V423.17H842.58H842.61V365H802.63Z" fill="#00AEEF"/>
<path d="M680.16 365H570L595.56 423.17H595.63H682.73V365H680.16Z" fill="#00AEEF"/>
<path d="M612.26 461H602.72L629.87 519.15H682.73V461H612.26Z" fill="#00AEEF"/>
<path d="M450.33 519.14L450.21 409.11C450.21 407.37 448.79 405.96 447.04 405.97L416.47 406.03V365.01H547.57L528.84 406.03H494.7C492.96 406.03 491.55 407.44 491.55 409.18V519.18L450.33 519.14Z" fill="#BE1F2D"/>
<path d="M272.51 519.17H313.36V444.21C313.36 441.15 317.27 439.89 319.06 442.38L374.24 519.18L416.47 519.19V365H377.74C376 365 374.57 366.43 374.59 368.18L375.19 439.3C375.21 442.37 371.27 443.66 369.48 441.17L315.66 366.31C315.07 365.48 314.11 365 313.1 365H275.57C273.83 365 272.42 366.42 272.42 368.15L272.51 519.17Z" fill="#BE1F2D"/>
<path d="M100.5 437.2L142.04 366.56C142.61 365.6 143.64 365.01 144.76 365.01H167.03C168.57 365.01 169.88 366.13 170.13 367.66L194.9 519.17H150.14L140.64 459.44C140.18 456.6 136.48 455.8 134.9 458.21L100.41 510.96C99.1699 512.86 96.3799 512.86 95.1399 510.95L60.74 458.22C59.19 455.83 55.51 456.58 55 459.39L44.3298 519.17H0L25.5798 367.63C25.8398 366.11 27.1399 365 28.6799 365H51.26C52.38 365 53.42 365.6 53.98 366.57L95.0698 437.19C96.2798 439.27 99.28 439.28 100.5 437.2Z" fill="#BE1F2D"/>
<path d="M268.16 519.17L234.33 443.27C233.22 440.78 229.68 440.78 228.57 443.28L194.95 519.17H150.14L219.66 366.85C220.17 365.73 221.29 365 222.52 365H240.25C241.49 365 242.6 365.72 243.11 366.84L312.94 519.17H268.16Z" fill="#BE1F2D"/>
<path d="M595.22 519.17L561.39 443.27C560.29 440.78 556.75 440.78 555.64 443.28L522.02 519.17H477.2L547.56 365H567.31C568.55 365 569.66 365.72 570.17 366.84L640 519.17H595.22Z" fill="#BE1F2D"/>
<path d="M133.61 260.98C133.61 282.99 115.03 295.79 80.22 295.79H9.15015V169.52H76.6101C111.42 169.52 127.66 183.41 127.66 202.53C127.66 214.25 121.71 224 110.16 229.77C124.95 235.18 133.61 246 133.61 260.98ZM51 199.29V218.05H70.8401C80.4001 218.05 84.73 214.8 84.73 208.67C84.73 202.54 80.4001 199.29 70.8401 199.29H51ZM90.6799 256.1C90.6799 249.61 85.9901 246.18 76.6101 246.18H51V266.02H76.6101C85.9901 266.03 90.6799 262.6 90.6799 256.1Z" fill="#BE1F2D"/>
<path d="M141.73 232.66C141.73 194.42 171.85 166.64 212.98 166.64C254.11 166.64 284.23 194.42 284.23 232.66C284.23 270.9 254.11 298.68 212.98 298.68C171.85 298.68 141.73 270.9 141.73 232.66ZM241.3 232.66C241.3 213 228.67 201.09 212.98 201.09C197.29 201.09 184.66 213 184.66 232.66C184.66 252.32 197.29 264.23 212.98 264.23C228.67 264.22 241.3 252.32 241.3 232.66Z" fill="#BE1F2D"/>
<path d="M410.68 295.79L410.32 238.25L382.9 284.43H364.14L336.72 240.23V295.79H297.94V169.52H332.93L374.06 236.8L414.1 169.52H449.09L449.45 295.79H410.68Z" fill="#BE1F2D"/>
<path d="M592.69 260.98C592.69 282.99 574.11 295.79 539.3 295.79H468.23V169.52H535.69C570.5 169.52 586.74 183.41 586.74 202.53C586.74 214.25 580.79 224 569.24 229.77C584.03 235.18 592.69 246 592.69 260.98ZM510.07 199.29V218.05H529.91C539.47 218.05 543.8 214.8 543.8 208.67C543.8 202.54 539.47 199.29 529.91 199.29H510.07ZM549.76 256.1C549.76 249.61 545.07 246.18 535.69 246.18H510.08V266.02H535.69C545.07 266.03 549.76 262.6 549.76 256.1Z" fill="#BE1F2D"/>
<path d="M710.84 263.68V295.79H605.85V169.52H708.49V201.63H647.7V216.42H701.09V247.08H647.7V263.67H710.84V263.68Z" fill="#BE1F2D"/>
<path d="M779.56 264.04H768.02V295.79H725.45V169.52H786.24C821.41 169.52 843.78 187.92 843.78 217.14C843.78 235.36 835.12 249.07 819.97 256.82L846.49 295.78H801.03L779.56 264.04ZM783.53 202.35H768.02V231.93H783.53C795.25 231.93 800.85 226.34 800.85 217.14C800.85 207.94 795.26 202.35 783.53 202.35Z" fill="#BE1F2D"/>
<path d="M852.98 232.66C852.98 194.42 883.1 166.64 924.23 166.64C965.36 166.64 995.48 194.42 995.48 232.66C995.48 270.9 965.36 298.68 924.23 298.68C883.1 298.68 852.98 270.9 852.98 232.66ZM952.55 232.66C952.55 213 939.92 201.09 924.23 201.09C908.54 201.09 895.91 213 895.91 232.66C895.91 252.32 908.54 264.23 924.23 264.23C939.92 264.22 952.55 252.32 952.55 232.66Z" fill="#BE1F2D"/>
<path d="M1001.25 285.69L1014.96 254.66C1026.87 261.7 1042.74 266.2 1056.63 266.2C1068.72 266.2 1073.04 263.67 1073.04 259.35C1073.04 243.48 1003.23 256.28 1003.23 209.2C1003.23 185.75 1022.89 166.63 1062.03 166.63C1078.99 166.63 1096.48 170.24 1109.65 177.63L1096.84 208.48C1084.39 202.17 1072.67 199.1 1061.67 199.1C1049.22 199.1 1045.26 202.71 1045.26 207.04C1045.26 222.19 1115.07 209.57 1115.07 256.1C1115.07 279.19 1095.41 298.67 1056.27 298.67C1035.16 298.68 1013.88 293.44 1001.25 285.69Z" fill="#BE1F2D"/>
<path d="M8.86011 62.6602C8.86011 26.8102 36.14 0.410156 73.04 0.410156C90.88 0.410156 106.96 6.36015 117.81 18.2502L109.59 26.4702C99.6201 16.3302 87.3801 11.9602 73.3901 11.9602C43.8401 11.9602 21.6301 33.6402 21.6301 62.6702C21.6301 91.7002 43.8401 113.38 73.3901 113.38C87.3801 113.38 99.6201 109.01 109.59 98.6902L117.81 106.91C106.97 118.8 90.8801 124.92 72.8701 124.92C36.1401 124.92 8.86011 98.5102 8.86011 62.6602Z" fill="#BE1F2D"/>
<path d="M130.92 71.58V1.45996H143.86V71.0599C143.86 100.09 157.5 113.38 181.28 113.38C205.24 113.38 218.88 100.09 218.88 71.0599V1.45996H231.47V71.58C231.47 106.73 212.58 124.92 181.28 124.92C149.98 124.92 130.92 106.73 130.92 71.58Z" fill="#BE1F2D"/>
<path d="M343.92 112.68V123.87H257.36V1.45996H341.3V12.6499H270.3V56.1899H333.6V67.21H270.3V112.68H343.92Z" fill="#BE1F2D"/>
<path d="M444.82 123.87L416.84 84.52C413.69 84.87 410.54 85.05 407.05 85.05H374.17V123.87H361.23V1.45996H407.05C438.18 1.45996 457.06 17.1999 457.06 43.4299C457.06 62.6699 446.92 76.1299 429.08 81.8999L458.98 123.87H444.82ZM444.12 43.4299C444.12 23.8399 431.18 12.6499 406.7 12.6499H374.17V74.0299H406.7C431.18 74.0299 444.12 62.6599 444.12 43.4299Z" fill="#BE1F2D"/>
<path d="M570.38 43.4299C570.38 69.4899 551.49 85.2199 520.37 85.2199H487.49V123.87H474.55V1.45996H520.37C551.49 1.45996 570.38 17.1999 570.38 43.4299ZM557.43 43.4299C557.43 23.8399 544.49 12.6499 520.01 12.6499H487.48V73.86H520.01C544.49 73.86 557.43 62.6599 557.43 43.4299Z" fill="#BE1F2D"/>
<path d="M576.15 62.6602C576.15 26.9902 603.43 0.410156 640.5 0.410156C677.22 0.410156 704.68 26.8202 704.68 62.6602C704.68 98.5002 677.23 124.91 640.5 124.91C603.43 124.92 576.15 98.3402 576.15 62.6602ZM691.74 62.6602C691.74 33.4602 669.88 11.9502 640.5 11.9502C610.95 11.9502 588.91 33.4602 588.91 62.6602C588.91 91.8602 610.94 113.37 640.5 113.37C669.88 113.38 691.74 91.8702 691.74 62.6602Z" fill="#BE1F2D"/>
<path d="M753.29 1.45996H803.13C842.3 1.45996 868.71 26.64 868.71 62.67C868.71 98.7 842.3 123.87 803.13 123.87H753.29V1.45996ZM802.43 112.68C834.96 112.68 855.94 92.04 855.94 62.67C855.94 33.29 834.96 12.6599 802.43 12.6599H766.23V112.69H802.43V112.68Z" fill="#BE1F2D"/>
<path d="M971.18 112.68V123.87H884.62V1.45996H968.56V12.6499H897.56V56.1899H960.86V67.21H897.56V112.68H971.18Z" fill="#BE1F2D"/>
</svg>
